<?xml version="1.0" standalone="no"?>
<!DOCTYPE svg PUBLIC "-//W3C//DTD SVG 20010904//EN"
 "http://www.w3.org/TR/2001/REC-SVG-20010904/DTD/svg10.dtd">
<svg version="1.0" xmlns="http://www.w3.org/2000/svg"
 width="512.000000pt" height="512.000000pt" viewBox="0 0 512.000000 512.000000"
 preserveAspectRatio="xMidYMid meet">
<metadata>
Created by potrace 1.11, written by Peter Selinger 2001-2013
</metadata>
<g transform="translate(0.000000,512.000000) scale(0.100000,-0.100000)"
fill="#000000" stroke="none">
<path d="M2139 4932 c-36 -39 -52 -68 -82 -148 -24 -66 -90 -304 -101 -364 -2
-14 -9 -45 -14 -70 -6 -25 -14 -65 -17 -90 -4 -24 -8 -47 -10 -50 -2 -3 -6
-23 -9 -45 -4 -22 -13 -76 -21 -120 -20 -112 -27 -162 -39 -305 -3 -30 -6 -55
-6 -55 -2 0 -12 -98 -13 -122 -1 -23 -9 -28 -62 -38 -232 -41 -676 -172 -823
-242 -200 -96 -175 -163 98 -261 84 -30 298 -85 374 -97 21 -3 41 -7 45 -9 3
-2 28 -7 55 -10 27 -4 53 -9 56 -11 4 -2 23 -5 44 -7 28 -2 36 -6 32 -18 -2
-8 -21 -60 -40 -115 -20 -55 -36 -117 -36 -138 0 -78 46 -135 190 -232 80 -54
199 -176 255 -261 39 -59 218 -298 242 -322 7 -7 13 -17 13 -20 0 -4 10 -18
23 -32 12 -14 34 -41 47 -60 13 -19 29 -40 35 -47 5 -6 52 -68 104 -137 51
-69 97 -126 101 -126 5 0 32 30 62 68 157 198 715 881 739 902 15 14 60 48
101 75 87 59 110 80 132 122 25 49 20 88 -28 216 -24 64 -41 118 -37 119 3 0
11 2 16 3 6 1 30 5 55 9 392 65 693 162 764 247 l27 31 -24 32 c-35 45 -142
99 -297 150 -118 39 -255 79 -308 91 -9 2 -62 15 -117 28 -55 14 -127 31 -160
38 -33 7 -63 14 -67 15 -5 1 -16 2 -25 3 -28 2 -41 14 -47 41 -3 14 -21 84
-40 155 -20 72 -38 142 -41 156 -3 15 -19 96 -36 180 -16 85 -33 168 -36 184
-2 17 -18 86 -35 155 -16 69 -31 134 -33 144 -3 10 -16 60 -31 110 -14 50 -28
99 -30 109 -8 45 -70 160 -94 177 -23 16 -33 18 -64 9 -37 -10 -65 -32 -166
-126 -158 -149 -258 -154 -377 -21 -133 150 -196 183 -244 130z"/>
<path d="M930 2459 c-88 -112 -176 -309 -201 -454 -13 -76 -16 -249 -5 -305 4
-19 9 -51 13 -70 8 -43 47 -157 75 -218 54 -117 168 -273 262 -359 65 -60 67
-37 -24 -228 -34 -71 -80 -168 -102 -215 -22 -47 -50 -108 -64 -136 -13 -28
-24 -56 -24 -61 0 -6 -7 -16 -15 -23 -9 -7 -14 -15 -12 -17 2 -2 -6 -24 -18
-50 -18 -37 -21 -51 -12 -70 19 -42 49 -30 197 76 54 38 446 281 454 281 11 0
132 76 139 86 5 9 22 7 66 -11 74 -30 273 -91 325 -99 21 -4 41 -8 45 -10 3
-2 28 -7 55 -10 27 -4 52 -9 56 -11 29 -18 541 -27 650 -12 43 6 88 13 155 23
112 18 326 80 450 131 117 48 327 165 395 220 8 7 33 26 55 43 170 134 332
345 390 511 12 34 12 38 -10 57 -75 65 -350 265 -377 274 -6 2 8 37 32 78 23
41 51 90 62 109 11 19 35 59 54 88 19 29 34 55 34 57 0 2 35 57 78 123 118
179 121 184 111 212 -13 34 -27 31 -314 -47 -176 -49 -382 -114 -418 -134 -44
-23 -143 -117 -197 -188 -19 -25 -38 -49 -43 -55 -4 -5 -23 -30 -41 -55 -161
-216 -342 -455 -399 -525 -14 -16 -58 -70 -98 -120 -41 -49 -90 -108 -110
-130 -53 -57 -78 -86 -107 -123 -13 -18 -26 -31 -28 -29 -2 2 14 47 36 101
l40 97 -23 32 c-12 17 -27 36 -33 42 -13 11 -178 218 -209 260 -11 16 -25 33
-30 39 -6 6 -51 65 -100 131 -49 66 -93 125 -97 130 -5 6 -49 64 -98 130 -114
151 -188 227 -254 259 -44 22 -237 90 -288 102 -24 5 -28 6 -228 59 -96 25
-183 50 -192 56 -14 7 -25 -1 -58 -42z"/>
</g>
</svg>
